# xmcd
#
# Track frame offsets:
#	150
#	13661
#	35392
#	49382
#	70991
#	85315
#	108164
#	133444
#	156280
#	175873
#	199308
#	217396
#
# Disc length: 3085 seconds
#
# Revision: 1
# Processed by: cddbd v1.5.1PL0 Copyright (c) Steve Scherf et al.
# Submitted via: audiograbber 1.81.02
#
DISCID=b70c0b0c
DTITLE=Saiko - Las Horas
DYEAR=2004
DGENRE=Pop
TTITLE0=Hoy
TTITLE1=Lo que mereces
TTITLE2=Debilidad
TTITLE3=Pausa
TTITLE4=Hola
TTITLE5=Luz mágica
TTITLE6=Verás
TTITLE7=Don
TTITLE8=Otra vez
TTITLE9=Las horas
TTITLE10=Lo que mereces {radio edit}
TTITLE11=Debilidad {acordeón}
EXTD=
EXTT0=
EXTT1=
EXTT2=
EXTT3=
EXTT4=
EXTT5=
EXTT6=
EXTT7=
EXTT8=
EXTT9=
EXTT10=
EXTT11=
PLAYORDER=
